<?xml version="1.0" standalone="no"?><!DOCTYPE svg PUBLIC "-//W3C//DTD SVG 1.1//EN" "http://www.w3.org/Graphics/SVG/1.1/DTD/svg11.dtd"><svg t="1731642500824" class="icon" viewBox="0 0 1024 1024" version="1.1" xmlns="http://www.w3.org/2000/svg" p-id="5463" xmlns:xlink="http://www.w3.org/1999/xlink" width="200" height="200"><path d="M483.779528 648.062992s10.07874 101.795276 12.094488 158.236221-12.094488 217.700787-12.094488 217.700787l38.299212-6.047244s2.015748-191.496063 0-247.937008-8.062992-139.086614-8.062992-139.086614l-30.23622 17.133858z" fill="#78AD74" p-id="5464"></path><path d="M475.716535 640s-112.88189 62.488189-137.070866 65.511811-77.606299-4.031496-99.779527-13.102362-97.76378-60.472441-110.866142-61.480315" fill="#FC47AA" p-id="5465"></path><path d="M475.716535 640s-132.63622-20.762205-154.204724-28.422047c-21.568504-7.659843-88.692913-22.979528-126.588976-19.955906-24.995276 2.015748-57.650394 12.296063-64.907087 26.607874-7.256693 14.311811 1.007874 17.133858 24.793701 18.948032 15.52126 1.209449 79.017323 6.853543 120.340157 6.853543 21.770079 0 59.666142 1.007874 67.527559 1.007874 22.576378 0 133.03937-5.03937 133.03937-5.03937z" fill="#FF83C1" p-id="5466"></path><path d="M348.724409 390.047244s-35.275591-8.062992-49.385826 36.283465-19.149606 84.661417 17.133858 131.023622 90.708661 72.566929 114.897638 77.606299 36.283465 14.110236 52.409449 13.102362c9.474016-0.604724 23.584252-4.63622 35.880315-10.885039 8.466142-4.233071 16.125984-9.474016 20.560629-15.319685 11.086614-14.110236 27.212598-82.645669 8.062993-134.047244s-29.228346-77.606299-102.80315-84.661418-96.755906-13.102362-96.755906-13.102362zM535.181102 631.937008c30.23622-13.102362 24.188976-54.425197 71.559055-67.527559s95.748031-24.188976 134.047245-25.196851 83.653543-13.102362 86.677165-16.125984 9.070866-12.094488 9.070866-7.055118-50.393701 86.677165-68.535433 97.76378-36.283465 43.338583-82.645669 45.35433-96.755906-4.031496-121.952756-13.102362-28.220472-14.110236-28.220473-14.110236zM384 613.795276s-54.425197 0-102.80315-39.307087S217.700787 499.905512 173.354331 476.724409 76.598425 409.19685 70.551181 401.133858s-26.204724-32.251969-26.204724-32.251968 88.692913 139.086614 116.913386 163.27559 96.755906 66.519685 123.968503 69.543307c27.011024 3.023622 98.771654 12.094488 98.771654 12.094489z" fill="#FF83C1" p-id="5467"></path><path d="M36.283465 367.874016s6.047244-5.03937 37.291338-4.031496 75.590551 4.031496 102.80315 13.102362 91.716535 78.614173 103.811023 112.88189 85.669291 108.850394 85.669292 108.850393l32.251968 17.133859s-34.267717 4.031496-81.637795-19.149607-99.779528-57.448819-114.897638-79.622047-32.251969-26.204724-65.511811-52.409449-66.519685-53.417323-81.637795-72.566929-18.141732-24.188976-18.141732-24.188976zM232.818898 222.740157s-10.48189 48.377953-5.03937 67.52756c9.272441 32.655118 28.018898 59.666142 28.220472 59.464566 2.620472-3.023622 93.732283 150.173228 102.80315 154.204725s-56.440945-142.110236-56.440945-142.110236-40.314961-47.370079-46.362205-70.551181-23.181102-68.535433-23.181102-68.535434z" fill="#FC47AA" p-id="5468"></path><path d="M331.590551 177.385827s-12.094488 24.188976-19.149606 53.417323c-3.628346 14.916535 10.07874 111.874016 15.11811 131.023622s46.362205 114.897638 92.72441 158.23622 100.787402 91.716535 100.787401 91.716536 54.425197-148.15748 36.283465-212.661418-91.716535-163.477165-109.858268-178.393701C419.275591 197.543307 358.80315 181.417323 345.700787 179.401575l-13.102362-2.015748" fill="#FF5CB5" p-id="5469"></path><path d="M232.818898 222.740157s-6.047244 49.385827 37.291338 109.858268 104.818898 174.362205 165.291339 221.732284 85.669291 57.448819 85.669291 57.448819-32.251969-128-63.496063-176.377953-101.795276-137.070866-133.03937-160.251969-25.398425-24.995276-59.464567-45.35433c-15.11811-9.070866-32.251969-7.055118-32.251968-7.055119z" fill="#FF7DD1" p-id="5470"></path><path d="M161.259843 293.291339S188.472441 324.535433 196.535433 356.787402c10.48189 41.927559 40.113386 128.806299 59.464567 158.23622 20.96378 31.647244 115.502362 88.491339 134.047244 94.740158 6.047244 2.015748-17.133858-133.03937-29.228346-168.314961s-33.259843-75.590551-72.566929-99.779528-101.795276-44.346457-110.866142-47.370078-16.125984-1.007874-16.125984-1.007874z" fill="#FFA4D6" p-id="5471"></path><path d="M593.637795 153.19685s-26.204724 39.307087-45.35433 55.433071-67.527559 68.535433-75.590552 123.968504-5.03937 117.92126 20.157481 187.464567 33.259843 92.724409 50.3937 87.685039 100.787402-60.472441 113.889764-105.826771 1.007874-181.417323-8.062992-225.76378-30.23622-86.677165-37.291338-97.763779-18.141732-25.19685-18.141733-25.196851z" fill="#FF6EC4" p-id="5472"></path><path d="M506.96063 617.826772s-30.23622-111.874016-7.055118-169.322835 47.370079-115.905512 103.811023-136.062992 60.472441-25.19685 60.472441-25.196851 28.220472 23.181102 33.259843 48.377953 24.188976 80.629921 11.086614 124.976378-39.307087 98.771654-77.606299 126.992126-65.511811 45.354331-82.645669 45.354331-41.322835-15.11811-41.322835-15.11811z" fill="#FF83C1" p-id="5473"></path><path d="M543.244094 607.748031s141.102362-177.385827 179.401575-214.677165 111.874016-99.779528 111.874016-99.779527-3.023622 74.582677-20.15748 123.968504-93.127559 159.445669-118.929134 175.370078c-47.370079 29.228346-103.811024 37.291339-122.96063 37.291339s-29.228346-22.173228-29.228347-22.173229z" fill="#FF45B4" p-id="5474"></path><path d="M591.622047 590.614173s179.401575-73.574803 206.614173-79.622047 47.370079-8.062992 65.511811-6.047244 51.401575-2.015748 51.401575-2.015748-5.03937 17.133858-31.244094 32.251968-96.755906 56.440945-141.102362 62.488189-160.251969-4.031496-160.251969-4.031496l9.070866-3.023622z" fill="#FF5CB5" p-id="5475"></path><path d="M529.133858 572.472441s31.244094-161.259843 90.708662-204.598425 114.897638-74.582677 149.165354-86.677166 54.425197-18.141732 65.511811-24.188976l11.086614-6.047244s5.03937 30.23622-1.007874 57.448819-12.094488 143.11811-63.496063 184.440945-144.125984 90.708661-179.401575 95.748031-74.582677 1.007874-74.582677 1.007874l2.015748-17.133858z" fill="#FC47AA" p-id="5476"></path><path d="M339.250394 386.418898s-45.75748 10.683465-49.788977 61.883464 28.220472 123.565354 56.440945 149.165355c28.220472 25.6 107.43937 55.029921 107.43937 55.029921s49.788976-2.620472 67.12441-14.714961c17.537008-12.094488 46.966929-104.818898 33.662992-139.691338s-25.6-76.598425-75.187402-86.072441c-49.788976-9.474016-61.883465-4.031496-92.724409-13.505512s-46.966929-12.094488-46.966929-12.094488z" fill="#FF94D9" p-id="5477"></path></svg>