<svg t="1735699393434" class="icon" viewBox="0 0 1024 1024" version="1.1" xmlns="http://www.w3.org/2000/svg" p-id="6848" width="200" height="200"><path d="M168.004 504.183A343.245 343.245 0 0 1 268.595 268.8a342.22 342.22 0 0 1 243.303-100.796A341.504 341.504 0 0 1 754.995 268.8a346.399 346.399 0 0 1 27.819 31.403l-60.211 47.001a8.021 8.021 0 0 0 3.003 14.097l175.685 43.008a8.021 8.021 0 0 0 9.898-7.714l0.82-180.906a7.953 7.953 0 0 0-12.903-6.281l-56.422 44.1A418.816 418.816 0 0 0 511.795 91.99C282.692 91.99 96.29 275.627 91.99 503.808a8.021 8.021 0 0 0 8.022 8.192h59.972a7.987 7.987 0 0 0 8.021-7.817zM923.99 512c4.506 0 8.124 3.686 8.022 8.192-4.301 228.113-190.6 411.819-419.84 411.819a419.055 419.055 0 0 1-330.855-161.417l-56.422 44.1a7.953 7.953 0 0 1-12.903-6.28l0.683-181.01c0-5.12 4.915-8.874 9.899-7.713l175.718 43.008c6.486 1.604 8.295 10 3.004 14.097l-60.211 47.001a346.399 346.399 0 0 0 27.818 31.403 342.255 342.255 0 0 0 243.2 100.796A342.22 342.22 0 0 0 755.405 755.2a342.153 342.153 0 0 0 73.694-109.397c16.896-39.902 25.907-82.296 26.897-125.986a7.987 7.987 0 0 1 8.021-7.817h59.972zM536.1 272.998c4.402 0 7.986 3.619 7.986 7.988v247.5l142.61 103.083a7.85 7.85 0 0 1 1.706 11.23l-28.604 39.014a7.987 7.987 0 0 1-11.195 1.707L483.294 562.79a7.919 7.919 0 0 1-3.311-6.485v-275.32c0-4.368 3.618-7.987 8.021-7.987h48.128z" p-id="6849" fill="#8a8a8a"></path></svg>